<?xml version="1.0" standalone="no"?>
<!DOCTYPE svg PUBLIC "-//W3C//DTD SVG 20010904//EN"
 "http://www.w3.org/TR/2001/REC-SVG-20010904/DTD/svg10.dtd">
<svg version="1.0" xmlns="http://www.w3.org/2000/svg"
 width="1024.000000pt" height="1024.000000pt" viewBox="0 0 1024.000000 1024.000000"
 preserveAspectRatio="xMidYMid meet">

<g transform="translate(0.000000,1024.000000) scale(0.100000,-0.100000)"
fill="#000000" stroke="none">
<path d="M0 5120 l0 -5120 5120 0 5120 0 0 5120 0 5120 -5120 0 -5120 0 0
-5120z m7273 3283 l217 -6 0 -2785 0 -2785 -149 249 c-81 137 -257 429 -391
649 -133 220 -308 508 -388 640 -214 353 -605 976 -679 1083 -97 139 -253 326
-330 394 -178 157 -419 271 -683 323 -128 25 -342 30 -478 11 -201 -28 -437
-121 -599 -236 -268 -189 -479 -463 -581 -751 -61 -174 -77 -273 -77 -489 0
-168 3 -210 23 -300 60 -267 185 -506 365 -696 234 -248 510 -400 832 -460
138 -26 415 -26 535 -1 184 40 384 122 527 217 253 170 407 354 563 674 l78
159 56 -87 c31 -47 244 -387 472 -754 229 -367 438 -701 464 -742 96 -152 240
-389 240 -394 0 -3 -201 -6 -447 -6 l-448 0 -145 220 c-80 122 -150 228 -157
238 -11 16 -14 15 -40 -9 -46 -43 -201 -143 -314 -203 -218 -115 -464 -199
-709 -243 -133 -24 -169 -26 -430 -27 -311 -1 -383 6 -620 64 -341 84 -692
265 -975 503 -306 258 -566 631 -709 1018 -135 368 -179 829 -116 1233 61 392
241 807 486 1119 80 100 293 311 391 385 480 363 1037 541 1628 519 558 -20
1044 -196 1460 -527 86 -69 245 -223 316 -307 l44 -52 -2 277 c-2 152 -4 633
-6 1067 -1 435 -6 798 -11 808 -8 16 9 17 280 17 159 0 387 -3 507 -7z"/>
</g>
</svg>
