<?xml version="1.0" standalone="no"?>
<!DOCTYPE svg PUBLIC "-//W3C//DTD SVG 20010904//EN"
 "http://www.w3.org/TR/2001/REC-SVG-20010904/DTD/svg10.dtd">
<svg version="1.0" xmlns="http://www.w3.org/2000/svg"
 width="1024.000000pt" height="1024.000000pt" viewBox="0 0 1024.000000 1024.000000"
 preserveAspectRatio="xMidYMid meet">

<g transform="translate(0.000000,1024.000000) scale(0.100000,-0.100000)"
fill="#000000" stroke="none">
<path d="M6470 7314 l0 -1176 -71 92 c-211 272 -495 507 -805 663 -372 188
-714 265 -1139 254 -228 -5 -341 -21 -535 -76 -523 -147 -992 -491 -1299 -951
-201 -300 -314 -583 -378 -947 -26 -148 -28 -177 -28 -443 0 -227 4 -309 18
-400 39 -245 81 -398 168 -602 126 -295 278 -518 513 -754 382 -381 863 -610
1400 -664 166 -17 485 -8 641 19 372 63 767 245 1011 465 29 25 55 46 58 46 3
0 15 -19 27 -43 12 -23 77 -144 146 -269 l125 -228 450 0 450 0 -24 43 c-13
23 -135 238 -270 477 -135 239 -320 566 -410 725 -296 524 -503 885 -508 885
-3 0 -15 -37 -28 -82 -141 -506 -501 -901 -945 -1037 -173 -53 -446 -69 -627
-37 -459 81 -833 366 -1035 788 -94 197 -134 372 -142 625 -14 431 107 787
368 1083 241 273 566 423 949 437 248 9 421 -27 635 -132 187 -91 379 -258
488 -422 35 -54 352 -629 742 -1348 18 -33 75 -139 128 -235 112 -207 550
-1018 615 -1140 95 -178 284 -525 288 -529 2 -2 4 1367 4 3042 l0 3047 -490 0
-490 0 0 -1176z"/>
</g>
</svg>
